<?xml version="1.0" encoding="UTF-8" standalone="no"?>
<!-- Created with Inkscape (http://www.inkscape.org/) -->

<svg
   width="210mm"
   height="210mm"
   viewBox="0 0 210 210"
   version="1.1"
   id="svg375"
   xml:space="preserve"
   inkscape:version="1.2.2 (732a01da63, 2022-12-09, custom)"
   sodipodi:docname="CoolMaze_favicon_sharp.svg"
   xmlns:inkscape="http://www.inkscape.org/namespaces/inkscape"
   xmlns:sodipodi="http://sodipodi.sourceforge.net/DTD/sodipodi-0.dtd"
   xmlns="http://www.w3.org/2000/svg"
   xmlns:svg="http://www.w3.org/2000/svg"><sodipodi:namedview
     id="namedview377"
     pagecolor="#ffffff"
     bordercolor="#666666"
     borderopacity="1.0"
     inkscape:showpageshadow="2"
     inkscape:pageopacity="0.0"
     inkscape:pagecheckerboard="0"
     inkscape:deskcolor="#d1d1d1"
     inkscape:document-units="mm"
     showgrid="false"
     inkscape:zoom="0.77949635"
     inkscape:cx="370.11078"
     inkscape:cy="229.63546"
     inkscape:window-width="1679"
     inkscape:window-height="853"
     inkscape:window-x="2027"
     inkscape:window-y="94"
     inkscape:window-maximized="0"
     inkscape:current-layer="layer1" /><defs
     id="defs372" /><g
     inkscape:label="Calque 1"
     inkscape:groupmode="layer"
     id="layer1"><g
       id="g453"
       transform="translate(0.03596205,-0.60690678)"><path
         style="fill:#fdfdfd;stroke-width:0.360245"
         d="m 1.7755934,105.61365 c 0,0 -0.6733274,-91.391783 9.0023836,-97.1677679 14.307431,-7.56582735 179.299493,-12.222121 192.523073,2.5869339 7.30772,11.950512 5.9757,94.580834 5.9757,94.580834 0,0 -0.3422,88.31578 -6.63151,97.16477 -4.45019,5.64108 -97.11907,6.58581 -97.11907,6.58581 0,0 -89.934852,0.37041 -96.6442843,-6.69001 C 2.6747183,195.60435 1.7755934,105.61365 1.7755934,105.61365 Z M 87.921761,206.41677 c 2.258207,-1.46047 3.756423,-3.21459 4.481855,-5.24738 0.385117,-1.07916 0.485542,-6.49454 0.498169,-26.86267 0.0095,-15.41283 -0.119331,-25.76354 -0.3256,-26.14896 -0.187775,-0.35086 -1.60624,-1.46242 -3.152145,-2.47015 -3.459855,-2.25536 -7.833813,-6.53144 -9.97413,-9.75094 -3.063859,-4.6087 -5.545649,-10.43974 -6.132431,-14.40833 -0.214907,-1.45348 -0.177762,-1.54946 0.557674,-1.44098 0.672596,0.0992 0.926039,0.64348 1.73163,3.71867 1.158764,4.42335 2.319258,6.97931 4.936373,10.87225 4.985626,7.41608 13.361295,13.14078 22.119834,15.1187 l 2.50294,0.56524 v 5.54471 5.54471 h 6.51854 6.51853 l -0.117,-5.66512 -0.117,-5.66511 1.51725,-0.25902 c 2.62959,-0.4489 7.53073,-2.30813 10.37609,-3.93611 2.79437,-1.59882 7.18232,-5.06263 8.80638,-6.95169 4.07152,-4.73587 7.15726,-10.49802 8.39373,-15.67404 l 0.78285,-3.27709 h 4.41783 4.41784 v -6.48441 -6.48442 h -4.44171 -4.44171 l -0.62835,-2.97202 c -0.70338,-3.32691 -2.98529,-8.442225 -5.29432,-11.868174 -0.842,-1.249294 -3.01504,-3.730435 -4.82897,-5.513648 -4.59052,-4.512794 -9.52191,-7.295121 -16.0292,-9.043801 -1.28787,-0.346088 -2.55357,-0.790482 -2.81265,-0.987547 -0.36057,-0.274258 -0.45468,-1.801452 -0.40127,-6.511192 l 0.0698,-6.152899 -6.08314,-0.223702 c -3.34572,-0.123038 -6.20472,-0.153997 -6.35332,-0.0688 -0.1486,0.08519 -0.27018,3.041167 -0.27018,6.568824 v 6.413925 l -2.25153,0.467224 c -7.171942,1.488266 -15.656625,6.585993 -19.972051,11.999504 -2.681221,3.363471 -3.989315,5.387317 -5.337384,8.257865 -1.162212,2.474783 -2.699623,7.583711 -2.699623,8.971041 0,0.57656 -0.46406,0.65214 -4.560464,0.7427 l -4.560465,0.10083 -0.03267,5.94404 -0.03267,5.94404 h -27.01838 c -27.010804,0 -27.018835,2.2e-4 -28.639483,0.78397 -1.9663215,0.95091 -3.96955,2.97666 -5.102713,5.16008 -0.8021212,1.54555 -0.8371962,1.9233 -0.7526188,8.10551 0.3356431,24.53394 2.8360802,59.80777 4.5138481,63.67713 0.8739114,2.01547 4.0448817,5.17301 6.2359637,6.20955 1.42963,0.67633 3.123613,1.03741 6.704804,1.42918 6.372682,0.69716 16.963154,1.49245 29.288532,2.19944 18.10306,1.03838 21.164642,1.15817 28.099115,1.09933 l 6.844656,-0.0581 2.028944,-1.31219 z m -35.89198,-14.91009 c -12.494168,-0.60515 -29.477625,-1.6326 -29.754735,-1.80007 -0.466644,-0.28202 -2.476777,-42.64853 -2.486308,-52.4026 l -8.91e-4,-0.91182 27.468686,0.13655 c 15.107778,0.0751 27.570644,0.24225 27.695256,0.37145 0.124612,0.1292 0.312041,12.59582 0.416512,27.70359 l 0.189942,27.46869 -6.900923,-0.0474 c -3.795506,-0.026 -11.2779,-0.25934 -16.627539,-0.51844 z m 12.192966,-26.9029 c -0.160605,-11.20027 -0.357605,-16.3839 -0.629561,-16.56575 -0.217692,-0.14557 -5.097006,-0.26769 -10.842915,-0.27139 -5.745909,-0.004 -13.000344,-0.11261 -16.120967,-0.24203 l -5.67386,-0.23533 -0.004,3.74891 c -0.0093,8.7367 0.818824,28.25702 1.216532,28.67629 0.446006,0.4702 13.056791,1.03428 25.354657,1.13411 l 6.93385,0.0563 z M 103.90507,137.0546 c -0.39627,-0.0974 -2.04054,-0.8044 -3.65394,-1.57116 -2.145551,-1.01965 -3.717985,-2.13213 -5.854335,-4.14185 -2.497972,-2.34991 -3.18162,-3.2686 -4.721754,-6.34507 -2.476253,-4.94639 -2.482391,-4.91993 1.171146,-5.04856 l 2.972022,-0.10463 v -6.30428 -6.30429 l -3.131323,-0.10379 -3.131322,-0.10378 0.511051,-1.44847 c 1.494859,-4.23689 4.356991,-8.421178 7.540848,-11.02433 2.120143,-1.733449 6.713047,-4.257769 8.374317,-4.602628 l 1.15744,-0.240273 0.10342,3.538082 0.10341,3.538079 5.76392,0.03844 c 3.17016,0.02115 6.06547,-0.03599 6.43402,-0.126928 0.60468,-0.149228 0.65743,-0.487117 0.54037,-3.460774 l -0.12973,-3.295399 0.86566,0.12204 c 2.41032,0.339812 8.3294,4.30026 11.01463,7.369879 1.53424,1.753875 4.25472,6.732312 4.70708,8.613902 l 0.23453,0.97554 -3.00727,0.1052 -3.00728,0.1052 -0.0985,6.20782 -0.0985,6.20781 -2.14174,-0.22385 c -2.07349,-0.21673 -2.17654,-0.18661 -3.23373,0.94512 l -1.09198,1.16897 v 4.82522 c 0,3.6284 0.11205,4.8252 0.45178,4.8252 0.66512,0 3.51857,-2.4318 5.05677,-4.30954 0.73642,-0.89897 1.91974,-2.8098 2.6296,-4.24628 l 1.29066,-2.61177 h 1.58988 c 1.76451,0 1.85101,0.17669 1.03145,2.10702 -2.41411,5.68601 -4.9667,8.96927 -9.11969,11.73017 -2.33067,1.54943 -5.67642,3.09433 -6.70132,3.09433 -0.41167,0 -0.46405,-0.71921 -0.29113,-3.99703 0.1694,-3.21117 0.11136,-4.06001 -0.29523,-4.31742 -0.27834,-0.17622 -3.22143,-0.32289 -6.54019,-0.32592 l -6.0341,-0.006 v 4.50307 c 0,2.47668 -0.12158,4.48427 -0.27019,4.46128 -0.1486,-0.023 -0.5944,-0.12147 -0.99067,-0.21883 z m 9.13178,-17.02623 8.05104,-0.005 1.04515,-1.11883 1.04514,-1.11883 -10e-4,-8.51773 c -0.001,-7.85588 -0.0568,-8.60869 -0.71519,-9.688513 l -0.71385,-1.170796 h -9.71149 c -9.62719,0 -9.71635,0.007 -10.27228,0.800648 -0.47225,0.674235 -0.56079,2.262681 -0.56079,10.060751 v 9.2601 l 1.1708,0.93368 c 0.72229,0.576 1.44679,0.86389 1.89128,0.75151 0.39627,-0.10018 4.34346,-0.18436 8.77153,-0.18707 z m 40.92651,82.11874 c 5.26605,-0.26553 7.40815,-0.50602 8.00795,-0.89902 1.68397,-1.10338 1.86698,-2.06316 1.98445,-10.40759 l 0.11024,-7.83019 -0.85009,-0.69217 c -0.80383,-0.65451 -1.31345,-0.67975 -9.36637,-0.4639 -9.48849,0.25433 -10.3581,0.45502 -10.65672,2.45941 -0.0897,0.60186 -0.25383,4.6075 -0.36482,8.90143 l -0.20178,7.80714 0.95179,0.74868 c 1.09564,0.86182 0.89714,0.85463 10.38535,0.37621 z m 36.40053,-2.50013 c 11.15019,-1.41161 10.57894,-1.051 11.20326,-7.07221 0.24436,-2.35668 0.62096,-5.97319 0.83691,-8.03668 0.53926,-5.15313 0.48107,-5.21449 -4.64723,-4.89956 -12.48417,0.76665 -13.26977,0.90265 -14.126,2.4454 -0.38666,0.69669 -1.26854,10.4873 -1.34588,14.94191 -0.0508,2.92468 1.55811,3.44667 8.07894,2.62114 z m -13.86944,-18.04606 c 7.96879,-0.51412 7.59038,-0.14413 7.96683,-7.78965 0.59181,-12.0196 0.54434,-12.46871 -1.36847,-12.9488 -0.5203,-0.13058 -4.46906,-0.1482 -8.77503,-0.0391 -8.52673,0.21596 -9.26125,0.38895 -10.00757,2.35704 -0.20296,0.53521 -0.44722,4.57765 -0.5428,8.9832 -0.16444,7.57929 -0.13546,8.05882 0.53885,8.91607 0.65081,0.82736 0.95261,0.90592 3.4784,0.90537 1.52116,-3.3e-4 5.44057,-0.17317 8.70979,-0.38409 z m -13.58226,-19.85091 c 1.75665,-0.69706 1.94777,-1.60864 2.13882,-10.20123 0.0969,-4.35683 0.0477,-8.36942 -0.10935,-8.91688 -0.59715,-2.08213 -0.56187,-2.07518 -10.48649,-2.06646 -8.43374,0.007 -9.18986,0.0602 -10.02253,0.69937 l -0.90061,0.69136 -0.11516,8.38668 c -0.0633,4.61267 -0.014,8.92583 0.10961,9.58479 0.42595,2.27051 1.16921,2.43803 10.30852,2.32342 4.81868,-0.0604 8.47547,-0.26228 9.07719,-0.50105 z m 37.0735,-0.88414 c 1.80571,-0.15307 2.63496,-0.40697 3.27918,-1.00401 1.01255,-0.9384 1.18086,-2.27878 1.54193,-12.27966 0.22368,-6.19541 0.20186,-6.51337 -0.48962,-7.13419 -0.88679,-0.79618 -0.38134,-0.77442 -9.97253,-0.42929 -7.00646,0.25213 -7.99023,0.36178 -8.63499,0.96247 -0.65423,0.6095 -0.7579,1.34036 -1.02728,7.24192 -0.16478,3.6102 -0.24698,7.75139 -0.18265,9.20265 0.1021,2.30366 0.23023,2.72832 1.00921,3.34482 0.82704,0.65454 1.30038,0.69132 6.47605,0.50316 3.07109,-0.11164 6.6714,-0.29518 8.0007,-0.40787 z M 143.04138,140.2577 c 0.9605,-0.85821 1.1681,-1.33711 1.3073,-3.01563 0.091,-1.09748 0.011,-2.09092 -0.17792,-2.20765 -0.39127,-0.24182 -5.19759,5.70737 -4.87311,6.03186 0.59559,0.59559 2.67479,0.14652 3.74373,-0.80858 z M 77.572046,92.788587 c 0.310286,-0.119068 1.281752,-1.213312 2.158808,-2.431654 2.71873,-3.776658 6.772694,-7.588515 10.750221,-10.10821 1.205528,-0.76368 2.148527,-1.643513 2.263312,-2.111713 0.108224,-0.441426 0.150942,-15.728653 0.09493,-33.971615 L 92.737473,10.996375 91.798772,9.5818688 C 91.282487,8.8038907 90.309825,7.6265645 89.637302,6.9655882 87.336013,4.703813 86.859301,4.5795409 79.948773,4.4399252 68.194283,4.2024452 31.917301,6.0488841 24.471033,7.2636514 23.381291,7.4414291 21.192803,7.6960031 19.607724,7.8293713 15.893768,8.1418622 13.587788,9.2174052 11.185248,11.757737 8.8580154,14.218442 8.0682581,16.043782 7.7501653,19.697125 7.6122462,21.281148 7.3523211,23.468772 7.1725538,24.558514 6.2875984,29.923077 4.9266973,52.865753 4.2838981,73.256755 l -0.3597757,11.412878 0.8623241,1.949869 c 1.2777023,2.889112 4.2591114,5.543365 6.8958865,6.139189 1.098885,0.248313 65.244687,0.277417 65.889713,0.0299 z M 19.790621,74.120497 c 0.01251,-6.627367 1.469342,-40.531679 2.090925,-48.661371 l 0.247894,-3.242205 3.242205,-0.247894 c 8.129692,-0.621583 42.034004,-2.078414 48.661371,-2.090925 l 1.469267,-0.0028 -0.157279,27.468686 c -0.0865,15.107778 -0.261344,27.572751 -0.388532,27.699939 -0.127188,0.127188 -12.592161,0.302029 -27.699939,0.388531 l -27.468686,0.15728 z M 63.604282,63.691763 c 0.283981,-0.283982 0.468153,-5.276982 0.609646,-16.527871 l 0.202739,-16.120967 -4.39222,-0.0034 c -9.034957,-0.0071 -27.440101,0.794614 -27.858965,1.213478 -0.418863,0.418864 -1.220553,18.824008 -1.213478,27.858965 l 0.0034,4.39222 16.120967,-0.202739 C 58.3273,64.159915 63.320301,63.975744 63.604282,63.691763 Z M 202.25197,91.977845 c 2.06162,-1.211958 2.64762,-1.78782 4.08693,-4.016199 1.24367,-1.925499 1.28383,-2.098122 1.42461,-6.124166 0.28981,-8.288393 -1.82101,-46.012104 -3.3623,-60.089485 -0.392,-3.580351 -0.75344,-5.27551 -1.42961,-6.704804 -1.04125,-2.201028 -4.20693,-5.3737009 -6.20955,-6.2232586 -5.35123,-2.2701188 -65.24874,-5.6667901 -71.24228,-4.0400099 -2.12648,0.5771753 -5.67773,4.290635 -6.24048,6.5255225 -0.46119,1.83152 -0.50563,22.784745 -0.10449,49.263068 l 0.22081,14.575419 1.26086,0.431959 c 0.69347,0.237578 2.39563,0.791948 3.78257,1.23193 6.61289,2.097826 13.80838,7.27704 17.74823,12.774928 0.70992,0.990674 1.61845,2.169788 2.01895,2.620253 l 0.72818,0.819028 27.9383,-0.09854 27.93829,-0.09854 z M 191.16489,75.853863 c -0.12083,-0.12083 -12.42771,-0.323468 -27.34861,-0.450306 l -27.12891,-0.230611 -0.22481,-27.558748 c -0.12365,-15.157311 -0.18115,-27.609318 -0.12779,-27.671127 0.15818,-0.183202 24.03436,0.631182 34.94421,1.191899 16.31908,0.838728 18.24093,0.986005 18.37716,1.40829 0.42886,1.329453 2.32182,40.278813 2.32584,47.856439 0.003,5.140668 -0.14494,6.126324 -0.81709,5.454164 z M 180.82077,60.132714 c 0.007,-9.163179 -0.78691,-27.46111 -1.20954,-27.877241 -0.4021,-0.395908 -19.89861,-1.225969 -28.57395,-1.216532 l -3.66235,0.004 0.17866,16.120967 c 0.0983,8.866531 0.24081,16.321252 0.31677,16.566046 0.1048,0.337751 2.81269,0.469363 11.22896,0.545771 6.09996,0.05538 13.48197,0.138784 16.40446,0.185346 l 5.31361,0.08466 0.003,-4.413002 z"
         id="path469"
         sodipodi:nodetypes="ccccccccsscsssssssscccccccsssscccccccsssssscssscssssscccsssssssssccscsscsssccccsscscssscscsssscccccssscccssscssscccccsscsssscssssssccsscccccccscssscssccssscsssscsssssssssssscssssssssccsccsssssssssssssssscssssssscssssssssscsssssscsccssscsssccscccsssssssssscsssscccssscsssscscssccsssccc" /><path
         style="fill:#cecfcf;stroke-width:0.360245"
         d="m 74.289896,207.65577 c 1.345649,-0.0695 3.453082,-0.069 4.683186,0.001 1.2301,0.0701 0.129116,0.127 -2.446637,0.12637 -2.575752,-7.2e-4 -3.582201,-0.058 -2.236549,-0.12751 z m -0.03235,-15.471 1.333559,-0.15372 0.137034,-1.96244 0.137037,-1.96244 -0.02961,2.07321 -0.02961,2.07321 -1.440981,0.043 -1.44098,0.043 1.333559,-0.15373 z m 18.466119,-26.95056 c -7.5e-5,-9.31233 0.04649,-13.17362 0.103477,-8.58062 0.05699,4.59299 0.05705,12.21217 1.33e-4,16.93151 -0.05692,4.71935 -0.103538,0.96145 -0.10361,-8.35089 z m 65.308225,16.48762 c 0.84208,-0.0758 2.22001,-0.0758 3.06209,0 0.84207,0.0759 0.1531,0.13791 -1.53105,0.13791 -1.68414,0 -2.37311,-0.0621 -1.53104,-0.13791 z m -82.606692,-13.9659 c -1.62e-4,-5.94404 0.04919,-8.42625 0.109673,-5.51601 0.06048,2.91025 0.06061,7.77356 2.95e-4,10.80736 -0.06032,3.0338 -0.109806,0.65269 -0.109968,-5.29135 z m -11.195635,5.76392 c 0.0011,-1.98135 0.06143,-2.74594 0.134432,-1.69909 0.073,1.04685 0.07224,2.66795 -0.0018,3.60245 -0.07394,0.9345 -0.133665,0.078 -0.132729,-1.90336 z m 53.687077,-16.93152 c 7.2e-4,-2.77389 0.0571,-3.86104 0.12567,-2.41589 0.0686,1.44514 0.0681,3.71469 -0.001,5.04343 -0.0691,1.32874 -0.12515,0.14635 -0.12459,-2.62754 z m 54.16481,4.23748 c 1.04021,-0.0728 2.74237,-0.0728 3.78257,0 1.04021,0.0728 0.18913,0.13231 -1.89128,0.13231 -2.08042,0 -2.9315,-0.0595 -1.89129,-0.13231 z m -28.57817,-10.72189 c -3.2e-4,-3.9627 0.0523,-5.63295 0.11696,-3.71167 0.0646,1.92127 0.0649,5.16348 7.2e-4,7.2049 -0.0643,2.04142 -0.11723,0.46947 -0.11754,-3.49323 z m -123.5792,-3.42233 c 0,-2.27855 0.05849,-3.21068 0.129984,-2.07141 0.07149,1.13928 0.07149,3.00355 0,4.14282 -0.07149,1.13928 -0.129984,0.20714 -0.129984,-2.07141 z m 33.096375,1.17242 c 1.931814,-0.0648 5.092964,-0.0648 7.024778,0 1.931815,0.0648 0.351239,0.11777 -3.512389,0.11777 -3.863628,0 -5.444204,-0.053 -3.512389,-0.11777 z m -19.453234,-0.35648 c 0.94114,-0.0742 2.481188,-0.0742 3.422328,0 0.94114,0.0742 0.171116,0.13493 -1.711164,0.13493 -1.882281,0 -2.652304,-0.0607 -1.711164,-0.13493 z m -2.324488,-11.17109 c 1.644019,-0.0669 4.237784,-0.0665 5.763921,7.2e-4 1.526138,0.0674 0.18103,0.1221 -2.989127,0.12164 -3.170156,-3.6e-4 -4.418814,-0.0556 -2.774794,-0.12247 z m 76.895217,-7.92533 c 1.73368,-0.066 4.57061,-0.066 6.30429,0 1.73368,0.066 0.31521,0.12007 -3.15215,0.12007 -3.46735,0 -4.88582,-0.054 -3.15214,-0.12007 z m -84.837714,-9.36802 c 4.804769,-0.0568 12.667118,-0.0568 17.471886,0 4.804769,0.0567 0.873594,0.10318 -8.735943,0.10318 -9.609537,0 -13.540711,-0.0464 -8.735943,-0.10318 z m 99.517074,-8.84367 0.17951,-7.99809 0.098,7.7199 c 0.0539,4.24595 -0.0268,7.84509 -0.1795,7.99809 -0.15265,0.153 -0.19676,-3.32095 -0.098,-7.7199 z M 41.518871,92.735026 c 6.701491,-0.05491 17.56288,-0.05488 24.136419,6.9e-5 6.57354,0.05495 1.090502,0.09988 -12.184529,0.09984 -13.275031,-3.6e-5 -18.653382,-0.045 -11.95189,-0.09991 z m 112.575589,8e-5 c 5.21494,-0.05629 13.64467,-0.05624 18.73274,1.11e-4 5.08808,0.05635 0.82132,0.1024 -9.48169,0.102339 -10.30301,-6.2e-5 -14.46598,-0.04616 -9.25105,-0.10245 z m 53.51989,-15.941057 c 0,-2.476685 0.0576,-3.489874 0.1279,-2.251532 0.0703,1.238342 0.0703,3.264721 0,4.503063 -0.0703,1.238343 -0.1279,0.225153 -0.1279,-2.251531 z M 92.728017,52.837752 c -3.2e-5,-14.06757 0.04467,-19.874918 0.09934,-12.905218 0.05467,6.969701 0.0547,18.479531 6.1e-5,25.5774 -0.05464,7.097869 -0.09936,1.395387 -0.0994,-12.672182 z M 34.467833,75.44421 c 2.427152,-0.06233 6.398853,-0.06233 8.826005,0 2.427151,0.06233 0.4413,0.113319 -4.413002,0.113319 -4.854303,0 -6.840154,-0.05099 -4.413003,-0.113319 z M 162.3771,75.44385 c 3.0338,-0.06032 7.89711,-0.06019 10.80735,2.96e-4 2.91024,0.06048 0.42804,0.109835 -5.516,0.109673 -5.94405,-1.63e-4 -8.32515,-0.04965 -5.29135,-0.109969 z M 19.922603,64.725839 c 8.28e-4,-2.179483 0.06015,-3.024643 0.131853,-1.878134 0.07171,1.146509 0.07104,2.929722 -0.0015,3.962696 -0.07252,1.032973 -0.131189,0.09492 -0.130376,-2.084562 z m 15.456713,-0.44536 c 0.947118,-0.07446 2.406111,-0.07355 3.242204,0.0022 0.836097,0.07555 0.06118,0.136468 -1.722032,0.135369 -1.783213,-0.0011 -2.467291,-0.06291 -1.520172,-0.137365 z m 136.353964,-7.21e-4 c 1.04685,-0.073 2.66795,-0.07224 3.60245,0.0018 0.9345,0.07394 0.078,0.133666 -1.90336,0.132729 -1.98135,-0.0011 -2.74594,-0.06143 -1.69909,-0.134433 z m -23.89996,-0.561114 c -0.0985,-0.256779 -0.12915,-2.810016 -0.068,-5.67386 l 0.11112,-5.206986 0.0793,5.463718 c 0.0577,3.972171 0.20228,5.513321 0.52966,5.645419 0.3527,0.142318 0.35025,0.187868 -0.0113,0.210142 -0.25389,0.01563 -0.54224,-0.18165 -0.64078,-0.438433 z M 119.02206,31.943537 c 7e-5,-9.708604 0.0465,-13.628528 0.10312,-8.710943 0.0567,4.917586 0.0566,12.86099 -1.2e-4,17.65201 -0.0567,4.791018 -0.10306,0.767538 -0.103,-8.941067 z m -43.600688,7.024779 c 0,-4.854302 0.05099,-6.840153 0.113319,-4.413002 0.06233,2.427151 0.06233,6.398853 0,8.826004 -0.06233,2.427152 -0.113319,0.441301 -0.113319,-4.413002 z m 60.874478,-1.260857 c 3.6e-4,-3.566427 0.0543,-4.976692 0.1198,-3.133923 0.0655,1.842769 0.0652,4.760753 -7.2e-4,6.484411 -0.0659,1.723657 -0.11949,0.215938 -0.11911,-3.350488 z M 64.225863,36.986968 c -0.0011,-1.783213 0.05982,-2.558128 0.135369,-1.722033 0.07555,0.836094 0.07645,2.295087 0.0022,3.242206 -0.07462,0.947117 -0.136436,0.263041 -0.137531,-1.520173 z m 83.220307,-1.080735 c 0.001,-1.981348 0.0614,-2.745937 0.13444,-1.699088 0.073,1.04685 0.0722,2.667953 -0.002,3.602451 -0.0738,0.934497 -0.13357,0.07798 -0.13264,-1.903363 z M 62.760224,19.968963 c 1.146509,-0.07171 2.929722,-0.07104 3.962696,0.0015 1.032974,0.07252 0.09492,0.131189 -2.084562,0.130376 -2.179483,-8.28e-4 -3.024643,-0.06015 -1.878134,-0.131853 z m 81.762476,3.97e-4 c 1.13928,-0.07149 3.00355,-0.07149 4.14282,0 1.13928,0.07149 0.20714,0.129983 -2.07141,0.129983 -2.27855,0 -3.21068,-0.05849 -2.07141,-0.129983 z"
         id="path467" /><path
         style="fill:#eaa0a0;stroke-width:0.360245"
         d="m 90.477494,119.76301 3.143697,-0.1276 0.111654,-6.1106 0.111658,-6.11059 -0.01315,6.21456 -0.01315,6.21455 -3.242206,0.0236 -3.242206,0.0236 3.143697,-0.12761 z m 59.268766,-0.006 c 1.23834,-0.0703 3.26472,-0.0703 4.50306,0 1.23834,0.0703 0.22515,0.1279 -2.25153,0.1279 -2.47669,0 -3.48988,-0.0576 -2.25153,-0.1279 z m -21.02033,-5.31707 c 3.6e-4,-2.97202 0.0563,-4.13991 0.124,-2.59531 0.0677,1.5446 0.0673,3.97625 -0.001,5.40367 -0.0682,1.42743 -0.12358,0.16366 -0.12308,-2.80836 z m -11.1717,-42.50892 c 7.2e-4,-2.575752 0.058,-3.582201 0.12751,-2.236549 0.0695,1.345649 0.069,3.453082 -0.001,4.683186 -0.0701,1.2301 -0.127,0.129115 -0.12636,-2.446637 z"
         id="path465" /><path
         style="fill:#a2a3a3;stroke-width:0.360245"
         d="m 92.713535,190.81161 c -2.2e-4,-4.95337 0.05052,-7.02971 0.11275,-4.61409 0.06223,2.41561 0.06241,6.46837 3.6e-4,9.00612 -0.06201,2.53776 -0.11293,0.56134 -0.113149,-4.39203 z m 50.412885,-2.52171 c 7.2e-4,-2.17949 0.0601,-3.02465 0.13185,-1.87814 0.0717,1.14651 0.071,2.92973 -0.001,3.9627 -0.0725,1.03297 -0.13119,0.0949 -0.13038,-2.08456 z m -67.355592,-5.5838 c 0,-3.07109 0.05525,-4.32744 0.122778,-2.7919 0.06753,1.53554 0.06753,4.04825 0,5.5838 -0.06753,1.53554 -0.122778,0.27919 -0.122778,-2.7919 z M 63.894704,158.02931 c 2.05e-4,-5.1515 0.0508,-7.20884 0.112436,-4.57186 0.06163,2.63698 0.06146,6.85185 -3.6e-4,9.36637 -0.06184,2.51453 -0.112267,0.357 -0.112061,-4.79451 z m 89.110866,3.87453 c 1.64402,-0.0669 4.23778,-0.0665 5.76392,7.2e-4 1.52614,0.0674 0.18103,0.1221 -2.98913,0.12164 -3.17016,-3.6e-4 -4.41881,-0.0556 -2.77479,-0.12247 z m 11.74395,-8.01735 c 0,-2.87295 0.056,-4.04825 0.12433,-2.61177 0.0684,1.43647 0.0684,3.78707 0,5.22355 -0.0684,1.43648 -0.12433,0.26118 -0.12433,-2.61178 z m -89.325897,-6.48441 c 0,-5.4487 0.05007,-7.67772 0.111273,-4.95337 0.0612,2.72436 0.0612,7.18239 0,9.90674 -0.0612,2.72436 -0.111273,0.49534 -0.111273,-4.95337 z m 109.482337,-1.80122 c 0,-1.68415 0.0621,-2.37312 0.1379,-1.53104 0.0759,0.84207 0.0759,2.22001 0,3.06208 -0.0758,0.84207 -0.1379,0.1531 -0.1379,-1.53104 z m -143.576366,2.25342 c 1.644022,-0.0669 4.237786,-0.0665 5.763921,7.2e-4 1.526139,0.0674 0.181031,0.1221 -2.989126,0.12164 -3.170157,-3.6e-4 -4.418813,-0.0556 -2.774795,-0.12247 z m 106.615436,-7.20409 c 1.43648,-0.0684 3.78708,-0.0684 5.22355,0 1.43648,0.0684 0.26118,0.12432 -2.61177,0.12432 -2.87296,0 -4.04826,-0.0559 -2.61178,-0.12432 z m -99.607761,-4.32535 c 4.903836,-0.0566 12.928295,-0.0566 17.832131,0 4.903836,0.0566 0.891606,0.10295 -8.916066,0.10295 -9.807672,0 -13.819901,-0.0463 -8.916065,-0.10295 z m -26.117768,-0.35413 c 0.842073,-0.0758 2.22001,-0.0758 3.062083,0 0.842073,0.0759 0.153104,0.1379 -1.531041,0.1379 -1.684146,0 -2.373115,-0.062 -1.531042,-0.1379 z M 51.219229,119.3939 c 2.724354,-0.0612 7.182386,-0.0612 9.90674,0 2.724353,0.0612 0.495337,0.11128 -4.95337,0.11128 -5.448707,0 -7.677723,-0.0501 -4.95337,-0.11128 z m 50.133531,-10.1778 c 0,-3.66549 0.0535,-5.16501 0.11888,-3.33226 0.0654,1.83274 0.0654,4.83178 0,6.66453 -0.0654,1.83275 -0.11888,0.33323 -0.11888,-3.33227 z m 8.04605,-10.714588 c 1.43648,-0.06838 3.78707,-0.06838 5.22355,0 1.43648,0.06838 0.26118,0.124328 -2.61178,0.124328 -2.87295,0 -4.04825,-0.05595 -2.61177,-0.124328 z M 16.836485,92.735808 c 2.438513,-0.06242 6.32916,-0.06223 8.645881,3.6e-4 2.316721,0.06272 0.321574,0.113787 -4.433661,0.113553 -4.755235,-2.38e-4 -6.650734,-0.0515 -4.21222,-0.113913 z m 169.495615,-6.5e-5 c 2.53775,-0.06201 6.59051,-0.06183 9.00613,3.6e-4 2.41562,0.06223 0.33927,0.11297 -4.6141,0.11275 -4.95337,-2.2e-4 -6.92978,-0.05114 -4.39203,-0.113149 z M 24.380972,75.806833 c 1.238342,-0.07035 3.26472,-0.07035 4.503063,0 1.238342,0.07035 0.225153,0.127901 -2.251532,0.127901 -2.476685,0 -3.489874,-0.05756 -2.251531,-0.127901 z m 155.445748,-0.0011 c 1.53554,-0.06753 4.04825,-0.06753 5.5838,0 1.53554,0.06753 0.27919,0.122779 -2.7919,0.122779 -3.07109,0 -4.32745,-0.05525 -2.7919,-0.122779 z M 54.10119,75.443594 c 3.715027,-0.05855 9.794163,-0.05855 13.50919,0 3.715027,0.05855 0.675459,0.106453 -6.754595,0.106453 -7.430055,0 -10.469623,-0.0479 -6.754595,-0.106453 z m 21.164178,-13.887681 0.179906,-14.12187 0.09462,13.847078 c 0.05205,7.615895 -0.02893,13.970733 -0.179903,14.12187 -0.150989,0.151134 -0.19357,-6.08005 -0.09463,-13.847078 z m 61.046492,13.707094 c -0.095,-0.247668 -0.12868,-7.421048 -0.0748,-15.940844 l 0.098,-15.490538 0.0861,15.730702 c 0.0667,12.182159 0.18767,15.771688 0.5364,15.912403 0.3527,0.142319 0.35025,0.187868 -0.0113,0.210142 -0.25389,0.01564 -0.53936,-0.174196 -0.63438,-0.421865 z m 6.43116,0.180861 c 2.73619,-0.06128 7.11317,-0.06112 9.72661,3.5e-4 2.61344,0.06147 0.37473,0.111603 -4.97491,0.111409 -5.34964,-1.91e-4 -7.48791,-0.05048 -4.7517,-0.111759 z M 119.37948,60.583021 c 0,-7.826325 0.0476,-11.028003 0.10574,-7.114841 0.0582,3.913162 0.0582,10.316519 0,14.229681 -0.0582,3.913162 -0.10574,0.711484 -0.10574,-7.11484 z m -72.122947,3.333037 c 2.922489,-0.06055 7.704742,-0.06055 10.62723,0 2.922488,0.06055 0.531361,0.110095 -5.313615,0.110095 -5.844976,0 -8.236103,-0.04954 -5.313615,-0.110095 z m 105.890787,3.61e-4 c 2.51452,-0.06184 6.72939,-0.06201 9.36637,-3.61e-4 2.63698,0.06164 0.57965,0.112231 -4.57186,0.112436 -5.1515,2.06e-4 -7.30903,-0.05022 -4.79451,-0.112061 z M 63.897064,52.657629 c 0,-5.844976 0.04954,-8.236103 0.110094,-5.313615 0.06055,2.922488 0.06055,7.704742 0,10.62723 -0.06055,2.922488 -0.110094,0.531361 -0.110094,-5.313615 z m 83.926626,-5.944044 c 3.6e-4,-3.566426 0.0543,-4.976692 0.11981,-3.133923 0.0655,1.842769 0.0652,4.760754 -7.2e-4,6.484411 -0.0659,1.723658 -0.1195,0.215939 -0.11912,-3.350488 z M 75.764657,26.719984 c 0,-2.476685 0.05756,-3.489874 0.127901,-2.251532 0.07035,1.238343 0.07035,3.264721 0,4.503064 -0.07034,1.238342 -0.127901,0.225153 -0.127901,-2.251532 z m 60.156863,-1.260858 c 7.2e-4,-2.179482 0.0601,-3.024642 0.13185,-1.878133 0.0717,1.14651 0.071,2.929723 -0.001,3.962696 -0.0726,1.032973 -0.13123,0.09492 -0.13041,-2.084563 z M 92.710369,19.875328 c 0,-4.259898 0.05211,-6.002584 0.1158,-3.872635 0.06369,2.129949 0.06369,5.61532 0,7.745269 -0.06369,2.129949 -0.1158,0.387264 -0.1158,-3.872634 z"
         id="path463" /><path
         style="fill:#606161;stroke-width:0.360245"
         d="m 92.362112,163.25287 c 0,-8.42073 0.04715,-11.86558 0.104785,-7.65521 0.05763,4.21036 0.05763,11.10005 0,15.31041 -0.05763,4.21037 -0.104785,0.76552 -0.104785,-7.6552 z m -16.58181,5.22355 c 2.52e-4,-4.5571 0.05188,-6.3717 0.114727,-4.03243 0.06285,2.33926 0.06264,6.0678 -3.6e-4,8.28563 -0.0631,2.21784 -0.114518,0.3039 -0.114266,-4.2532 z m -11.903733,3.06208 c 0,-2.47668 0.05756,-3.48987 0.127902,-2.25153 0.07035,1.23834 0.07035,3.26472 0,4.50306 -0.07034,1.23835 -0.127902,0.22516 -0.127902,-2.25153 z M 171.19171,161.1864 c 0.94712,-0.0744 2.40611,-0.0735 3.2422,0.002 0.8361,0.0755 0.0612,0.13647 -1.72203,0.13537 -1.78321,-0.001 -2.46729,-0.0629 -1.52017,-0.13736 z m 13.71425,-9.82162 c 0,-1.68415 0.0621,-2.37312 0.1379,-1.53104 0.0759,0.84207 0.0759,2.22001 0,3.06208 -0.0758,0.84207 -0.1379,0.1531 -0.1379,-1.53104 z m -20.17172,-5.5838 c -0.001,-1.78321 0.0598,-2.55813 0.13537,-1.72203 0.0755,0.83609 0.0764,2.29508 0.002,3.2422 -0.0744,0.94712 -0.13627,0.26304 -0.13737,-1.52017 z m -109.178917,2.43523 c 1.146508,-0.0717 2.929721,-0.071 3.962695,0.001 1.032974,0.0725 0.09492,0.13119 -2.084561,0.13037 -2.179483,-7.2e-4 -3.024643,-0.0601 -1.878134,-0.13185 z m 101.949357,-7.56515 c 1.14651,-0.0717 2.92972,-0.071 3.96269,0.001 1.03298,0.0725 0.0949,0.13119 -2.08456,0.13038 -2.17948,-7.2e-4 -3.02464,-0.0601 -1.87813,-0.13186 z M 29.622213,135.966 c 1.743408,-0.0662 4.499283,-0.0658 6.124166,7.2e-4 1.624884,0.0666 0.198459,0.12074 -3.169832,0.12033 -3.368292,-3.6e-4 -4.697742,-0.0549 -2.954334,-0.12108 z m 77.996027,-16.21181 c 2.43852,-0.0624 6.32916,-0.0622 8.64588,3.6e-4 2.31673,0.0627 0.32158,0.11372 -4.43366,0.11348 -4.75523,-2.3e-4 -6.65073,-0.0515 -4.21222,-0.11391 z m -82.720894,-0.36063 c 3.899966,-0.0581 10.384377,-0.0582 14.409804,-1.8e-4 4.025425,0.058 0.834543,0.10557 -7.090848,0.10566 -7.925392,1e-4 -11.218922,-0.0474 -7.318956,-0.10548 z m 97.711714,-9.63709 c -3.2e-4,-3.96269 0.0523,-5.63295 0.11696,-3.71167 0.0647,1.92127 0.0649,5.16348 7.2e-4,7.2049 -0.0643,2.04142 -0.11722,0.46947 -0.11754,-3.49323 z M 44.220428,92.374799 c 6.205999,-0.0553 16.256836,-0.05526 22.335194,8.3e-5 6.078357,0.05535 1.000721,0.100595 -11.283636,0.100552 -12.284357,-4.7e-5 -17.257558,-0.04533 -11.051558,-0.100635 z m 108.972962,1.08e-4 c 4.71934,-0.05691 12.33853,-0.05685 16.93152,1.34e-4 4.59299,0.05699 0.73171,0.103552 -8.58063,0.103476 -9.31233,-7.2e-5 -13.07023,-0.04669 -8.35089,-0.10361 z M 92.367451,54.098609 c 0,-13.572233 0.04486,-19.12451 0.09968,-12.338393 0.05482,6.786116 0.05482,17.89067 0,24.676787 -0.05482,6.786116 -0.09968,1.233839 -0.09968,-12.338394 z M 34.62799,75.804942 c 2.118967,-0.06358 5.685392,-0.0638 7.925393,-3.6e-4 2.239996,0.06331 0.506295,0.115328 -3.85267,0.115599 -4.358965,2.73e-4 -6.191691,-0.05152 -4.072723,-0.115102 z m 129.72852,-7.21e-4 c 2.33926,-0.06284 6.06779,-0.06264 8.28563,3.61e-4 2.21784,0.0631 0.3039,0.114518 -4.2532,0.114266 -4.5571,-2.53e-4 -6.3717,-0.05188 -4.03243,-0.114728 z M 119.7016,70.309637 c 0,-1.684145 0.0621,-2.373114 0.13791,-1.531041 0.0758,0.842073 0.0758,2.22001 0,3.062083 -0.0759,0.842073 -0.13791,0.153104 -0.13791,-1.531042 z M 36.629304,63.919884 c 1.040208,-0.07277 2.742365,-0.07277 3.782573,0 1.040208,0.07277 0.189129,0.132311 -1.891287,0.132311 -2.080415,0 -2.931494,-0.05954 -1.891286,-0.132311 z m 132.570186,-0.0011 c 1.23834,-0.07034 3.26472,-0.07034 4.50306,0 1.23835,0.07035 0.22516,0.127902 -2.25153,0.127902 -2.47668,0 -3.48987,-0.05756 -2.25153,-0.127902 z M 75.779347,38.788194 c 2.71e-4,-4.358966 0.05229,-6.092666 0.1156,-3.852668 0.0633,2.239997 0.06308,5.806425 -3.61e-4,7.92539 -0.06358,2.118968 -0.115375,0.286243 -0.115102,-4.072722 z m 43.600303,-6.484411 c 1e-4,-7.925392 0.0477,-11.116273 0.10567,-7.090848 0.058,4.025426 0.0579,10.509837 -1.8e-4,14.409803 -0.0581,3.899966 -0.10558,0.606436 -0.10549,-7.318955 z m -55.508628,6.304288 c 0,-2.080415 0.05954,-2.931494 0.13231,-1.891286 0.07277,1.040207 0.07277,2.742365 0,3.782573 -0.07277,1.040208 -0.13231,0.189129 -0.13231,-1.891287 z m 72.064588,-3.062083 c 3.6e-4,-3.566426 0.0543,-4.976691 0.1198,-3.133923 0.0655,1.842769 0.0652,4.760754 -7.2e-4,6.484411 -0.0659,1.723658 -0.1195,0.215938 -0.11912,-3.350488 z m 11.86511,1.981348 c 0,-1.684146 0.0621,-2.373114 0.1379,-1.531041 0.0758,0.842072 0.0758,2.22001 0,3.062083 -0.0758,0.842072 -0.1379,0.153104 -0.1379,-1.531042 z"
         id="path461" /><path
         style="fill:#c80606;stroke-width:0.360245"
         d="m 117.5786,155.17693 c 0.0131,-4.46227 0.10747,-5.39905 0.55615,-5.52116 0.38926,-0.10594 0.41734,-0.0597 0.10041,0.1654 -0.30188,0.21442 -0.47642,1.94714 -0.55615,5.52117 l -0.1162,5.20869 0.0158,-5.3741 z m -12.2848,-1.8308 c -0.001,-1.78322 0.0598,-2.55813 0.13537,-1.72204 0.0756,0.8361 0.0764,2.29509 0.002,3.24221 -0.0744,0.94712 -0.13627,0.26304 -0.13736,-1.52017 z m -15.46809,-9.51428 c -2.66996,-1.88109 -8.661055,-7.85259 -8.270348,-8.2433 0.127988,-0.12799 0.669858,0.32974 1.204155,1.01717 2.053973,2.64264 3.568397,4.10189 6.628636,6.38715 2.853767,2.13107 3.413134,2.60799 3.058815,2.60799 -0.06071,0 -1.240277,-0.79605 -2.621258,-1.76901 z m 27.74404,-6.63104 c -0.10018,-0.26107 -0.12928,-2.16587 -0.0647,-4.23288 l 0.11748,-3.75822 0.076,4.02273 c 0.0533,2.82123 0.21047,4.07701 0.52628,4.20444 0.3527,0.14232 0.35025,0.18787 -0.0113,0.21014 -0.25389,0.0156 -0.54358,-0.18515 -0.64376,-0.44621 z m -37.620944,-3.84824 c -2.093514,-3.26245 -3.887073,-7.9486 -4.841218,-12.64895 -0.163807,-0.80694 -0.429823,-0.97367 -1.868008,-1.1708 -0.922353,-0.12642 -2.951261,-0.22985 -4.508683,-0.22985 h -2.831681 l 0.04906,-1.71117 c 0.02698,-0.94114 0.115988,-1.30589 0.197789,-0.81055 0.299713,1.8149 0.374057,1.87123 1.619572,1.22715 0.637381,-0.32961 1.815592,-0.63483 2.61825,-0.67828 2.155123,-0.11666 4.379917,1.17359 2.990416,1.73426 -0.247669,0.0999 -0.01019,0.1945 0.527694,0.21015 1.123795,0.0327 1.534061,0.64902 1.899392,2.8535 0.503677,3.03927 2.877832,8.79582 4.889286,11.85492 0.42341,0.64394 0.689758,1.1708 0.59189,1.1708 -0.09787,0 -0.698061,-0.81053 -1.333757,-1.80118 z M 105.2992,93.005077 c 0,-2.080416 0.0596,-2.931494 0.13232,-1.891287 0.0728,1.040208 0.0728,2.742366 0,3.782573 -0.0728,1.040208 -0.13232,0.189129 -0.13232,-1.891286 z m 4.09961,3.335725 c 1.23834,-0.07035 3.26472,-0.07035 4.50306,0 1.23834,0.07035 0.22515,0.127901 -2.25153,0.127901 -2.47669,0 -3.48987,-0.05756 -2.25153,-0.127901 z m 8.14332,-2.795358 c -0.001,-1.783213 0.0598,-2.558129 0.13537,-1.722032 0.0756,0.836092 0.0765,2.295085 0.002,3.242205 -0.0744,0.947117 -0.13627,0.26304 -0.13736,-1.520173 z m 23.38669,-1.711164 c -1.68873,-2.235169 -4.613,-5.295721 -7.12341,-7.455376 -1.19736,-1.030063 -1.37852,-1.269864 -0.54037,-0.715277 1.72172,1.139224 6.75773,6.256632 8.21796,8.350776 1.60445,2.300975 1.22787,2.178578 -0.55418,-0.180123 z m -58.548104,-1.5545 c 2.246204,-2.922507 5.948457,-6.223223 9.276022,-8.26997 1.632411,-1.004079 0.668846,-0.165979 -2.25303,1.959658 -1.437306,1.045622 -3.858715,3.222694 -5.380912,4.837943 -1.522198,1.615245 -2.261132,2.277808 -1.64208,1.472369 z m 45.300534,-9.555933 c -1.38695,-0.761918 -2.39609,-1.390431 -2.24254,-1.396696 0.39094,-0.01596 5.30462,2.480414 5.30462,2.694979 0,0.319329 -0.51488,0.101028 -3.06208,-1.298283 z m -22.37909,-7.892494 c 0,-2.27855 0.0585,-3.210684 0.12999,-2.071409 0.0715,1.139275 0.0715,3.003543 0,4.142818 -0.0715,1.139275 -0.12999,0.207141 -0.12999,-2.071409 z m 11.91902,-3.312799 0.11661,-5.294147 -1.31268,-0.139033 -1.31269,-0.13903 1.36223,-0.06056 c 0.81219,-0.0361 1.42705,0.121262 1.52279,0.389749 0.0883,0.247669 0.0135,2.719851 -0.16615,5.493738 l -0.32671,5.043431 z"
         id="path459" /><path
         style="fill:#b20000;stroke-width:0.360245"
         d="m 105.30213,161.02033 c -0.1098,-0.17766 -0.0841,-2.4123 0.0571,-4.96585 0.31225,-5.64595 0.15708,-6.49093 -1.19202,-6.49093 -1.53402,0 -5.732468,-1.30708 -8.652125,-2.69362 -3.397381,-1.61341 -8.960905,-5.79308 -11.156386,-8.38138 -0.939469,-1.10757 -1.951293,-2.27494 -2.248495,-2.59418 -2.299088,-2.46949 -5.647587,-9.77614 -6.308857,-13.76634 -0.365331,-2.20448 -0.775597,-2.82082 -1.899392,-2.8535 -0.5379,-0.0156 -0.775363,-0.11021 -0.527694,-0.21015 1.389501,-0.56067 -0.835293,-1.85092 -2.990416,-1.73426 -0.802658,0.0435 -1.968757,0.34241 -2.591333,0.66436 -0.866854,0.44826 -1.195502,0.48254 -1.40328,0.14635 -0.149225,-0.24146 -0.340803,-2.74858 -0.425727,-5.57138 l -0.154409,-5.13237 4.617474,-0.10116 4.61747,-0.10116 0.442936,-2.3416 c 1.708156,-9.030219 8.69454,-18.232035 17.978466,-23.679556 2.452091,-1.438816 7.161578,-3.215814 9.358858,-3.531317 2.88004,-0.41354 2.80777,-0.213204 2.65586,-7.363287 l -0.13415,-6.313651 3.42233,-0.114317 c 1.88228,-0.06288 4.58526,-0.0097 6.00662,0.118222 l 2.58429,0.232538 -0.18302,4.564964 c -0.10066,2.510732 -0.0464,5.450195 0.12047,6.53214 0.27631,1.791006 0.40001,1.989648 1.3813,2.218062 5.55046,1.291972 11.20413,3.811796 14.69397,6.54905 4.20253,3.296249 8.27932,8.095211 10.67411,12.564915 1.38931,2.593062 3.26848,8.295187 3.26848,9.917827 0,0.81728 0.0482,0.82613 4.50306,0.82613 h 4.50307 v 6.11308 6.11308 l -4.36934,0.10114 -4.36933,0.10115 -0.87398,3.38376 c -1.65935,6.42446 -4.04764,10.65181 -9.18615,16.25979 -4.29807,4.69075 -11.29032,8.55175 -17.8224,9.84122 l -2.10515,0.41558 -0.0474,5.76392 -0.0474,5.76392 -5.99889,0.0359 c -3.29939,0.0197 -6.08872,-0.10944 -6.19852,-0.2871 z m 0.0439,-27.85713 v -4.31374 h 6.07769 6.07769 l -0.0622,4.20015 c -0.0376,2.54151 0.0833,4.29003 0.30618,4.42778 1.10356,0.68204 9.10207,-3.85409 11.80872,-6.69699 1.53397,-1.61119 4.70227,-6.92586 5.17469,-8.68032 0.20752,-0.77066 0.47119,-1.64586 0.58594,-1.94489 0.17886,-0.4661 -0.28195,-0.52715 -3.2289,-0.42778 -1.89064,0.0638 -3.35682,-0.0138 -3.25818,-0.17243 0.0986,-0.1586 0.15789,-2.955 0.13166,-6.21423 l -0.0477,-5.92587 h 3.25741 c 1.79157,0 3.2574,-0.0939 3.2574,-0.20874 0,-0.7639 -2.16083,-5.41019 -3.42121,-7.356407 -1.75111,-2.703963 -5.37786,-6.282209 -7.79801,-7.693711 -2.14762,-1.25255 -6.07513,-2.794313 -6.48034,-2.543881 -0.17198,0.106287 -0.31276,1.683205 -0.31284,3.504259 l -1.5e-4,3.311005 h -5.94398 -5.94397 l 8e-5,-3.512389 c 5e-5,-1.931815 -0.13055,-3.51239 -0.29021,-3.51239 -0.15966,0 -1.33496,0.348299 -2.61178,0.774001 -2.55189,0.85082 -6.302426,3.113897 -8.598783,5.18852 -2.647992,2.392301 -5.337023,6.923503 -6.669865,11.239183 -0.24688,0.79938 -0.205318,0.81055 3.016152,0.81055 h 3.266482 v 6.12417 6.12416 H 90.39588 c -1.783213,0 -3.242205,0.0522 -3.242205,0.11595 0,0.59585 1.453005,4.14909 2.4888,6.08622 1.699121,3.17766 4.234634,6.05233 6.989802,7.92477 2.488858,1.69145 7.341953,3.9397 8.173403,3.78642 0.4447,-0.082 0.54037,-0.86337 0.54037,-4.41337 z M 65.899216,119.66321 c 0,-0.21488 1.380938,-0.36024 3.422328,-0.36024 2.04139,0 3.422328,0.14536 3.422328,0.36024 0,0.21488 -1.380938,0.36025 -3.422328,0.36025 -2.04139,0 -3.422328,-0.14537 -3.422328,-0.36025 z"
         id="path457" /><path
         style="fill:#000000;stroke-width:0.360245"
         d="M 65.178726,207.19851 C 51.497709,206.63595 42.51292,206.05107 29.874709,204.90036 17.644368,203.78678 16.994075,203.69037 14.980349,202.69229 12.570012,201.49763 10.166456,199.01808 8.987516,196.51 8.0568538,194.5301 7.6825502,191.26152 6.2929059,172.97948 4.6789079,151.74587 3.8636564,129.35512 4.6074246,126.68799 5.2527438,124.3739 7.4528698,121.8043 9.829663,120.58876 l 2.089467,-1.06859 24.378266,0.0747 c 13.408047,0.0411 27.079676,0.1762 30.381401,0.30027 l 6.003135,0.22558 0.228399,1.30229 c 0.125617,0.71627 0.788064,3.00446 1.472105,5.08488 2.686239,8.16985 8.781046,15.91367 15.755758,20.01863 l 1.878789,1.10575 0.28111,21.58969 c 0.328205,25.20652 0.248198,31.31898 -0.425907,32.53907 -0.845315,1.52995 -3.385075,4.04041 -4.882441,4.82611 -1.315798,0.69043 -2.103766,0.77119 -8.121707,0.83243 -3.665493,0.0373 -9.825684,-0.0622 -13.689312,-0.22104 z m 10.871691,-26.20358 c -0.06876,-6.29077 -0.232952,-18.89485 -0.364867,-28.00905 l -0.23984,-16.57127 -22.155072,-0.21976 c -12.185289,-0.12087 -24.705604,-0.27218 -27.822921,-0.33624 -3.117317,-0.0641 -5.768749,-0.0156 -5.892071,0.10775 -0.288117,0.28812 0.447041,23.57691 1.128594,35.75226 0.288371,5.15151 0.629765,11.26045 0.758652,13.57544 0.128888,2.31498 0.331588,4.36029 0.450444,4.54514 0.426122,0.66269 32.036349,2.2989 48.673688,2.51944 l 5.58842,0.0741 z m -25.281494,-0.50019 c -5.052437,-0.17277 -11.293683,-0.43486 -13.869435,-0.58243 l -4.683186,-0.26829 -0.265526,-6.48442 c -0.506702,-12.3742 -0.847412,-24.49906 -0.701155,-24.95202 0.108789,-0.33692 0.862652,-0.40613 2.898449,-0.26609 1.51328,0.10409 8.641914,0.25005 15.841412,0.32436 7.199498,0.0743 13.223206,0.2751 13.386015,0.44621 0.162813,0.17112 0.351452,7.44398 0.419196,16.16191 l 0.123175,15.85078 -1.981348,0.0421 c -1.089741,0.0231 -6.11516,-0.0993 -11.167597,-0.27207 z m 93.483597,21.24606 c -0.39627,-0.23128 -0.82821,-0.5836 -0.95986,-0.78293 -0.13165,-0.19934 -0.15368,-4.10384 -0.049,-8.67667 0.18041,-7.87807 0.23077,-8.35452 0.95985,-9.08202 0.72946,-0.72787 1.21888,-0.77864 9.41534,-0.97676 10.72384,-0.25921 10.11548,-0.52493 10.01573,4.37483 -0.0391,1.92163 -0.17867,5.66717 -0.3101,8.32342 -0.33129,6.69508 0.0927,6.36158 -8.47455,6.66652 -3.64912,0.12989 -7.36425,0.3122 -8.25586,0.40514 -0.90489,0.0943 -1.93942,-0.0168 -2.34159,-0.25153 z m 38.98019,-2.62129 c -0.74136,-0.74136 -0.73758,-0.003 -0.0466,-9.11226 0.51758,-6.82326 0.63772,-7.55316 1.36593,-8.29865 0.73647,-0.75393 1.35653,-0.85839 7.98833,-1.34582 3.95444,-0.29064 7.62999,-0.53074 8.16789,-0.53354 1.70539,-0.009 1.80331,0.75794 1.00709,7.88681 -0.39833,3.56637 -0.72423,6.96024 -0.72423,7.54192 0,2.11553 -0.82965,2.57934 -5.9568,3.3301 -2.56874,0.37613 -6.13678,0.78775 -7.92898,0.9147 -2.79039,0.19767 -3.34677,0.1426 -3.87263,-0.38326 z m -18.71844,-18.31097 c -0.52604,-0.80283 -0.56885,-1.85397 -0.37219,-9.13811 l 0.22222,-8.23093 0.93842,-0.93841 0.93842,-0.93842 8.21239,-0.26157 c 7.10454,-0.22629 8.32715,-0.18638 9.06313,0.29585 0.46791,0.30659 0.90307,0.92617 0.96703,1.37686 0.064,0.45068 -0.0191,4.14268 -0.18461,8.20445 -0.34135,8.37835 -0.61003,9.33487 -2.74476,9.77146 -0.66998,0.13703 -4.64433,0.36544 -8.83189,0.50758 l -7.61374,0.25843 z m -20.09913,-19.73465 c -0.7104,-0.7104 -0.73397,-1.07267 -0.63043,-9.68951 0.0987,-8.21035 0.16438,-9.01425 0.79383,-9.70911 0.66285,-0.73176 0.99583,-0.7576 9.76084,-0.7576 8.3338,0 9.12325,0.0538 9.67078,0.6588 0.51856,0.573 0.5962,1.74275 0.5962,8.98267 0,4.57814 -0.15514,8.73194 -0.34476,9.23069 -0.69316,1.82315 -1.75604,2.02206 -10.80494,2.02206 -7.88885,0 -8.34039,-0.0369 -9.04152,-0.738 z m 41.28883,-0.82709 -0.91614,-0.91614 0.19539,-7.85558 c 0.23771,-9.55679 0.28977,-9.95362 1.38251,-10.53843 0.77644,-0.41554 15.32089,-1.11689 16.8628,-0.81315 1.32604,0.26122 1.45114,1.45061 1.07232,10.19528 -0.45808,10.57449 0.033,9.87442 -7.15804,10.20351 -2.73773,0.12529 -6.22532,0.32069 -7.75019,0.43423 -2.62356,0.19534 -2.82172,0.15721 -3.68865,-0.70972 z M 139.8095,140.60897 c 0.24349,-0.62595 3.73158,-5.06264 3.99271,-5.07853 0.4801,-0.0292 0.28659,2.50933 -0.27391,3.59322 -0.29925,0.57869 -0.85598,1.21908 -1.23718,1.42309 -0.83809,0.44854 -2.64957,0.49396 -2.48162,0.0622 z m -17.35181,-14.11899 c 0,-4.38887 0.47426,-6.39538 1.54029,-6.51673 1.24347,-0.14155 7.10559,-0.18735 7.10559,-0.0555 0,0.79458 -2.73202,5.71618 -3.9582,7.1305 -1.51059,1.74236 -3.8638,3.75201 -4.41749,3.77255 -0.14861,0.006 -0.27019,-1.94336 -0.27019,-4.33081 z m -20.09356,-7.38756 c -0.79218,-0.55486 -0.80065,-0.65915 -0.80065,-9.85091 0,-8.77951 0.0389,-9.325344 0.70834,-9.931153 0.63648,-0.576003 1.6263,-0.645635 9.75547,-0.686264 8.23084,-0.04114 9.10952,0.01293 9.73876,0.599246 0.3804,0.354453 0.70282,1.002891 0.71648,1.440981 0.11162,3.57947 -0.0695,17.12112 -0.23602,17.64576 -0.11589,0.36515 -0.61267,0.81674 -1.10395,1.00352 -0.49128,0.18679 -4.73727,0.33961 -9.43551,0.33961 -7.14838,0 -8.67293,-0.0915 -9.34292,-0.56079 z M 11.499878,92.337881 C 8.9036134,91.462904 6.5549017,89.426092 5.1282398,86.81237 3.9610217,84.673963 4.4126223,63.360975 6.1000242,40.949664 7.9732049,16.070918 8.0615543,15.569102 11.166662,12.171619 13.808572,9.2809489 16.09935,8.3289357 21.769195,7.765364 39.424708,6.010441 61.656249,4.7150351 75.625833,4.627201 85.17509,4.56716 85.585456,4.593219 86.998125,5.3493759 c 1.623268,0.8688818 3.728583,3.0363467 4.728295,4.8678761 0.737635,1.351386 0.720718,0.02655 0.560747,43.911441 l -0.09006,24.706872 -2.791899,1.825833 c -3.812636,2.493368 -6.712115,5.208863 -9.278083,8.689338 l -2.159698,2.92942 -17.142593,0.0022 c -9.428428,0.0011 -24.180463,0.08268 -32.782302,0.181016 -8.601839,0.09834 -16.046033,0.04186 -16.542653,-0.125506 z M 49.508065,75.863539 c 14.265705,-0.12106 25.962862,-0.244916 25.993685,-0.275231 0.03084,-0.0303 0.178786,-11.970223 0.328806,-26.53313 0.150024,-14.562907 0.286917,-27.126453 0.304209,-27.918993 l 0.03145,-1.44098 -8.285637,0.0907 c -11.906874,0.130336 -42.911749,1.546979 -45.417091,2.07515 -0.717429,0.151247 -0.770758,0.570678 -1.360948,10.703749 -1.160773,19.9295 -1.945517,42.779506 -1.494264,43.509647 0.180386,0.291874 0.864548,0.363171 2.11441,0.220344 1.016254,-0.116128 13.519675,-0.310192 27.78538,-0.431253 z M 31.207402,63.645104 c -0.129713,-0.402628 0.34696,-16.692525 0.748444,-25.5774 l 0.260456,-5.763921 5.763921,-0.260457 c 8.884875,-0.401484 25.174772,-0.878157 25.5774,-0.748443 0.545674,0.175799 0.254214,31.499534 -0.298236,32.051985 -0.55245,0.55245 -31.876185,0.84391 -32.051985,0.298236 z M 161.48334,92.384115 144.49087,92.277569 142.85249,90.029546 C 137.88374,83.211919 132.16354,79.077044 123.5902,76.105714 l -3.7308,-1.293013 -0.10371,-5.403676 c -0.057,-2.972022 -0.14571,-17.156672 -0.19705,-31.521444 -0.10554,-29.5299529 -0.29149,-27.515434 2.81911,-30.5400166 3.03042,-2.946614 3.92897,-3.1138336 15.17011,-2.8231582 15.71568,0.4063786 37.01961,1.7351889 52.31697,3.2632173 6.70303,0.6695541 8.64957,1.6535717 12.21128,6.1730675 1.27989,1.624058 1.8073,4.785657 2.87966,17.262356 1.2568,14.622557 1.61431,20.562919 2.18962,36.382288 0.47976,13.192186 0.36023,17.475802 -0.53605,19.209002 -0.92258,1.784067 -3.0432,3.982801 -4.69304,4.86591 -1.41178,0.755682 -1.86866,0.784938 -12.45303,0.797438 -6.04311,0.0071 -18.63408,-0.03498 -27.97993,-0.09357 z m 30.72064,-25.586867 c -0.48328,-18.691283 -1.85251,-43.894214 -2.42386,-44.614924 -0.17378,-0.219223 -2.19657,-0.499688 -4.5478,-0.630567 -2.32914,-0.129649 -8.44967,-0.471665 -13.60118,-0.760036 -13.68887,-0.766276 -35.51123,-1.403209 -35.80051,-1.044916 -0.13706,0.169755 -0.14027,5.90145 -0.007,12.7371 0.13313,6.83565 0.26038,19.35867 0.28278,27.828932 0.0319,12.062388 0.13834,15.399028 0.49104,15.393794 3.86736,-0.05738 52.36794,0.483741 52.4757,0.58547 0.0825,0.07794 0.87686,0.141703 1.76512,0.141703 h 1.61502 z m -29.8086,-2.874612 c -10.23091,-0.07998 -13.64918,-0.215462 -13.92736,-0.55201 -0.50332,-0.608951 -0.75091,-31.952983 -0.25281,-32.006149 1.76342,-0.188222 30.94737,0.815501 31.2172,1.073653 0.22957,0.219638 0.92435,16.907071 1.11181,26.70391 l 0.0931,4.863309 -2.34159,0.01164 c -1.28788,0.0064 -8.44301,-0.03606 -15.9003,-0.09436 z"
         id="path455" /></g></g></svg>
